/* XPM */
static char *posechangemode2[]={
"18 18 4 1",
". c None",
"# c #000080",
"b c #008000",
"a c #808080",
"..................",
"........#.........",
"........##........",
"......a####.......",
".....######.......",
"....###.##...#a...",
"...a##..#.........",
"...##a........##..",
"...##....bb.......",
"...##...bbbb..##..",
"...##...bbbb..##..",
"...##....bb..a##..",
"...a##.......##a..",
"....###.....###...",
".....#########....",
"......a#####a.....",
"..................",
".................."};
