/* XPM */
static char *croplaser[]={
"20 20 3 1",
". c #000000",
"# c #00ff00",
"a c #ffffff",
"....................",
"....................",
"....................",
"....................",
"....############....",
"....############....",
"....##.a......##....",
"....##aaa..a..##....",
"....##.a..aaa.##....",
"....##.....a..##....",
"....##..a.....##....",
"....##.aaa..a.##....",
"....##..a..aaa##....",
"....##......a.##....",
"....############....",
"....############....",
"....................",
"....................",
"....................",
"...................."};
