/* XPM */
static char *deletelastedge[]={
"20 20 3 1",
". c #000000",
"a c #ff0000",
"# c #ffffff",
"....................",
"....................",
"..##.........##.....",
"..##...aa....##.aa..",
"..##...aaa...##aaa..",
"..##....aaa.##aaa...",
"..##.....aaa#aaa....",
"..##......aaaaa.....",
"..##.......aaa......",
"..##......aaaaa.....",
"..##.....aaa#aaa....",
"..##....aaa#..aaa...",
"..##...aaa##...aaa..",
"..##...aa.##....aa..",
"..##.....##.........",
"..##.....##.........",
"..#########.........",
"..#########.........",
"....................",
"...................."};
