/* XPM */
static char *fileopen[]={
"20 20 82 2",
".# c None",
"Qt c None",
"## c #121212",
".t c #111111",
".o c #0f0f0f",
".j c #090909",
"#m c #070707",
"#f c #080808",
".f c #060606",
".l c #070707",
".e c #080808",
".m c #060606",
".d c #060606",
".g c #050505",
".X c #060606",
".i c #060606",
"#e c #191905",
".k c #050505",
"#l c #040404",
"#. c #0d0e05",
".h c #040404",
".v c #040404",
".a c #040404",
".c c #040404",
".p c #161704",
".n c #040404",
".W c #040404",
".u c #040404",
"#p c #4f5104",
".1 c #040404",
".b c #040404",
".0 c #0d0e04",
".s c #161704",
".q c #16170d",
".r c #161711",
".Z c #171804",
".9 c #2a2b04",
"#n c #333404",
".4 c #424304",
".Y c #454604",
"#k c #474804",
".V c #4d4e04",
"#i c #4e5004",
"#c c #505104",
"#d c #5a5c04",
"#h c #606204",
".2 c #616304",
"#o c #636504",
"#g c #646504",
".I c #696a69",
"#j c #727404",
".7 c #767904",
".O c #7b7d32",
".8 c #7d8004",
".3 c #808304",
".S c #979904",
".U c #979929",
".Q c #97994d",
".R c #979972",
".T c #979997",
"#b c #a0a228",
".P c #aeb029",
".w c #b7ba04",
"#a c #b7ba3b",
".J c #b7ba49",
".A c #b7ba9b",
".5 c #b7baa9",
".6 c #bbbf11",
".D c #ced104",
".G c #ced136",
".F c #ced169",
".E c #ced19b",
".H c #ced1ce",
".z c #f3f704",
".B c #f3f752",
".L c #f3f760",
".N c #f3f76e",
".x c #f3f77b",
".K c #f3f789",
".M c #f3f797",
".y c #f3f7b7",
".C c #f3f7ce",
"QtQtQtQtQtQtQtQtQtQtQtQtQtQtQtQtQtQtQtQt",
"QtQtQtQtQtQtQtQtQtQtQtQtQtQtQtQtQtQtQtQt",
".#.#.#.#.#.#.#.#.#.#.#.a.b.b.b.#.#.#.#.#",
".#.#.#.#.#.#.#.#.#.#.c.d.e.e.e.c.f.g.h.#",
".#.#.#.#.#.#.#.#.#.#.i.j.#.#.#.i.k.c.a.#",
".#.l.m.m.m.#.#.#.#.#.#.#.#.#.#.m.n.b.a.#",
".o.p.q.r.s.o.o.o.o.o.o.o.o.t.#.u.u.u.v.#",
".b.w.x.y.z.b.b.b.b.b.b.b.b.a.#.#.#.#.#.#",
".b.A.x.B.C.D.E.F.G.H.D.E.I.a.#.#.#.#.#.#",
".b.J.x.K.L.M.N.x.K.L.M.N.O.a.#.#.#.#.#.#",
".b.J.x.K.L.M.P.Q.R.S.T.U.V.W.X.X.X.X.X.X",
".b.A.x.B.C.D.Y.Z.Z.Z.Z.Z.Z.Z.Z.Z.Z.0.1.W",
".b.w.x.y.z.b.2.3.3.3.3.3.3.3.3.3.3.4.a.#",
".b.5.x.6.s.7.8.3.3.3.3.3.3.3.3.3.9#.##.#",
".b#a#b#c#d.3.3.3.3.3.3.3.3.3.3.9#e#f.#.#",
".b#g#h#i.3.3.3.3.3.3.3.3.3#j#k#l#m.#.#.#",
".b.b#n#o#o#o#o#o#o#o#o#o#o#p.c.#.#.#.#.#",
".b.b.b.b.b.b.b.b.b.b.b.b.b.a.#.#.#.#.#.#",
"QtQtQtQtQtQtQtQtQtQtQtQtQtQtQtQtQtQtQtQt",
"QtQtQtQtQtQtQtQtQtQtQtQtQtQtQtQtQtQtQtQt"};
