/* XPM */
static char *gambrelroof[]={
"20 20 4 1",
". c None",
"# c #000000",
"b c #ff0000",
"a c #ffffff",
"....................",
"....................",
"####################",
"####################",
"##abbaabbaabbaabba##",
"##abbaabbaabbaabba##",
"##abbaabbaabbaabba##",
"####################",
"####################",
"##aaaaaaaaaaaaaaaa##",
"##aaaaaaaaaaaaaaaa##",
"####################",
"####################",
"##abbaabbaabbaabba##",
"##abbaabbaabbaabba##",
"##abbaabbaabbaabba##",
"####################",
"####################",
"....................",
"...................."};
