/* XPM */
static char *gambrelroofrot[]={
"20 20 4 1",
". c None",
"# c #000000",
"b c #ff0000",
"a c #ffffff",
"..################..",
"..################..",
"..##aaa##aa##aaa##..",
"..##bbb##aa##bbb##..",
"..##bbb##aa##bbb##..",
"..##aaa##aa##aaa##..",
"..##aaa##aa##aaa##..",
"..##bbb##aa##bbb##..",
"..##bbb##aa##bbb##..",
"..##aaa##aa##aaa##..",
"..##aaa##aa##aaa##..",
"..##bbb##aa##bbb##..",
"..##bbb##aa##bbb##..",
"..##aaa##aa##aaa##..",
"..##aaa##aa##aaa##..",
"..##bbb##aa##bbb##..",
"..##bbb##aa##bbb##..",
"..##aaa##aa##aaa##..",
"..################..",
"..################.."};
