/* XPM */
static char *hiproof2rot[]={
"20 20 5 1",
". c None",
"# c #000000",
"a c #00c000",
"c c #ff0000",
"b c #ffffff",
"..################..",
"..################..",
"..####abbaabba####..",
"..#####bbaabb#####..",
"..##b###baab###b##..",
"..##cc###aa###cc##..",
"..##ccc######ccc##..",
"..##bbbb####bbbb##..",
"..##bbbbb##bbbbb##..",
"..##ccccc##ccccc##..",
"..##ccccc##ccccc##..",
"..##bbbbb##bbbbb##..",
"..##bbbb####bbbb##..",
"..##ccc######ccc##..",
"..##cc###aa###cc##..",
"..##b###baab###b##..",
"..#####bbaabb#####..",
"..####abbaabba####..",
"..################..",
"..################.."};
