/* XPM */
static char *hiproofrot[]={
"20 20 4 1",
". c None",
"# c #000000",
"a c #ff0000",
"b c #ffffff",
"..################..",
"..################..",
"..####abbaabba####..",
"..#####bbaabb#####..",
"..##b###baab###b##..",
"..##aa###aa###aa##..",
"..##aaa######aaa##..",
"..##bbbb####bbbb##..",
"..##bbbbb##bbbbb##..",
"..##aaaaa##aaaaa##..",
"..##aaaaa##aaaaa##..",
"..##bbbbb##bbbbb##..",
"..##bbbb####bbbb##..",
"..##aaa######aaa##..",
"..##aa###aa###aa##..",
"..##b###baab###b##..",
"..#####bbaabb#####..",
"..####abbaabba####..",
"..################..",
"..################.."};
