/* XPM */
static char *movenode[]={
"20 20 3 1",
". c #000000",
"# c #00ff00",
"a c #ffffff",
"....................",
"....................",
"..##aaaaaaaaaaaaaa..",
"..####aaaaaaaaaaaa..",
"..aa####........aa..",
"..aa..####......aa..",
"..aa....####...aa...",
"..aa......###..aa...",
"..aa.......##..aa...",
"..aa.......##..aa...",
"..aa........##aa....",
"..aa........##aa....",
"..aa........##aa....",
"..aa........##aa....",
"..aa.........##.....",
"..aa.........##.....",
"..aaaaaaaaaaa##.....",
"..aaaaaaaaaaa##.....",
"....................",
"...................."};
