/* XPM */
static char *segmentlaser[]={
"20 20 4 1",
". c #000000",
"a c #00ff00",
"# c #ff0000",
"b c #ffff00",
"....................",
"....................",
"...#.......#........",
"..###.....###...a...",
"...#...#...#...aaa..",
"......###.......a...",
".......#............",
"....#......a........",
"...###....aaa...a...",
"....#......a...aaa..",
".......b........a...",
"......bbb...........",
".......b....b.......",
"...........bbb......",
"...b........b...a...",
"..bbb...b......aaa..",
"...b...bbb......a...",
"........b...........",
"....................",
"...................."};
