/* XPM */
static char *selectmodelpart[]={
"20 20 4 1",
". c #000000",
"# c #ff0000",
"b c #ffff80",
"a c #ffffff",
"....................",
"....................",
".....#..............",
"....##..............",
"....##.a............",
"...###.aa...........",
"...###.aaa..........",
"..####.aaaa.........",
"..####.aaaaa........",
".#####.aaaaaa.......",
".bbbbb.aaaa.........",
".bbbbb.aa.a.........",
".bbbbb.a..aa........",
".bbbbb..bb.a........",
".bbbbb.bbb.aa.......",
".bbbbbbbbbb.a.......",
".bbbbbbbbbb.........",
".bbbbbbbbbb.........",
".bbbbbbbbbb.........",
"...................."};
