/* XPM */
static char *showortho[]={
"20 20 3 1",
". c #00f000",
"# c #585858",
"a c #c00000",
".............####...",
"............###.....",
"...........###......",
".........####.......",
"........####........",
".......###.....a....",
"......###.....aaa...",
"....####.....aaaaa..",
"...####.....aaaaaaa.",
"..###......aaaaaaa..",
".####.....aaaaaaa...",
"#####....aaaaaaa....",
"##..##....aaaaa.....",
"#....##....aaa......",
".....###....a.......",
"......##............",
".......##...........",
".......###..........",
"........###.........",
".........###........"};
