/* XPM */
static char *showmap[]={
"20 20 2 1",
". c #000000",
"# c #ffb83d",
"....................",
"....................",
"..###########.......",
"..###########.......",
"..##.......##.......",
"..##.......##.......",
"..##.......##.......",
"..##.......##.......",
"..##.......#######..",
"..##.......#######..",
"..##............##..",
"..##............##..",
"..##............##..",
"..##............##..",
"..##............##..",
"..##............##..",
"..################..",
"..################..",
"....................",
"...................."};
