/* XPM */
static char *splitmappart[]={
"20 20 3 1",
". c #000000",
"a c #00ff00",
"# c #ff0000",
"....................",
"....................",
"..###########.......",
"..###########.......",
"..##.......##.......",
"..##.......##.......",
"..##.......##.......",
"..##.......##.......",
"..################..",
"..####aa##########..",
"..##..aa...##...##..",
"..##..aa...##...##..",
"..##..aa...##...##..",
"..##..aa...##...##..",
"..##..aa...##...##..",
"..##..aa...##...##..",
"..####aa##########..",
"..################..",
"....................",
"...................."};
