/* XPM */
static char *viewopen[]={
"20 20 61 1",
". c None",
"e c #000080",
"# c #040404",
"d c #050505",
"b c #060606",
"3 c #070707",
"c c #080808",
"f c #090909",
"E c #0d0e04",
"R c #0d0e05",
"g c #0f0f0f",
"h c #111111",
"S c #121212",
"N c #161704",
"D c #171804",
"X c #191905",
"Q c #2a2b04",
"4 c #333404",
"K c #424304",
"C c #454604",
"2 c #474804",
"z c #4d4e04",
"0 c #4e5004",
"6 c #4f5104",
"V c #505104",
"W c #5a5c04",
"Z c #606204",
"I c #616304",
"5 c #636504",
"Y c #646504",
"m c #696a69",
"1 c #727404",
"O c #767904",
"s c #7b7d32",
"P c #7d8004",
"J c #808304",
"w c #979904",
"y c #979929",
"u c #97994d",
"v c #979972",
"x c #979997",
"U c #a0a228",
"t c #aeb029",
"F c #b7ba04",
"T c #b7ba3b",
"n c #b7ba49",
"i c #b7ba9b",
"L c #b7baa9",
"M c #bbbf11",
"k c #ced104",
"l c #ced19b",
"H c #f3f704",
"A c #f3f752",
"p c #f3f760",
"r c #f3f76e",
"j c #f3f77b",
"o c #f3f789",
"q c #f3f797",
"G c #f3f7b7",
"B c #f3f7ce",
"a c #ffffff",
"....................",
"....................",
"...........####.....",
".....aaa..#bccc#bd#.",
"...aaeeeaabf...bd##.",
".aaaeeeeeaaa...b###.",
"gaaaeeeeeaaagh.####.",
"#aaaeeeeeaaa##......",
"#ijaaeeeaaklm#......",
"#njopaaaopqrs#......",
"#njopqtuvwxyz#bbbbbb",
"#ijABkCDDDDDDDDDDE##",
"#FjGH#IJJJJJJJJJJK#.",
"#LjMNOPJJJJJJJJJQRS.",
"#TUVWJJJJJJJJJJQXc..",
"#YZ0JJJJJJJJJ12#3...",
"##455555555556#.....",
"##############......",
"....................",
"...................."};
