/* XPM */
static char *autoroof[]={
"20 20 4 1",
". c None",
"# c #000000",
"b c #ff0000",
"a c #ffffff",
"......##############",
"......##############",
"......##aaaa##aaaa##",
"......##bbbb##bbbb##",
"......##bbbb##bbbb##",
"......##aaaa##aaaa##",
"########aaaa##aaaa##",
"#########bbb##bbbb##",
"##abbaa###bb##bbbb##",
"##abbaab###a##aaaa##",
"##abbaabb#####aaaa##",
"##abbaabba####bbbb##",
"##############bbbb##",
"###############aaa##",
"##abbaabbaabb###aa##",
"##abbaabbaabba###b##",
"##abbaabbaabbaa#####",
"##abbaabbaabbaab####",
"####################",
"####################"};
