/* XPM */
static char *browsemode[]={
"20 20 4 1",
". c None",
"# c #000080",
"b c #008000",
"a c #808080",
"....................",
"..........#.........",
"..........#.........",
"..........#.........",
"........#####.......",
"......#########.....",
".....###..#..###....",
".....##...#...##....",
"....##....#....##...",
"....##....#....##...",
".###################",
"....##....#....##...",
"....##....#....##...",
".....##...#...##....",
".....###..#..###....",
"......#########.....",
"........#####.......",
"..........#.........",
"..........#.........",
"..........#........."};
