/* XPM */
static char *croplines[]={
"20 20 3 1",
". c #000000",
"# c #00ff00",
"a c #ffffff",
"....................",
"....................",
"....................",
"....................",
"....############....",
"....############....",
"....##........##....",
"....##...aaa..##....",
"....##..a...a.##....",
"....##.aa...a.##....",
"....##.a...aa.##....",
"....##.a...a..##....",
"....##..aaa...##....",
"....##........##....",
"....############....",
"....############....",
"....................",
"....................",
"....................",
"...................."};
