/* XPM */
static char *cylinderroof[]={
"20 20 4 1",
". c None",
"# c #000000",
"b c #ff0000",
"a c #ffffff",
"....................",
"....................",
"####################",
"####################",
"##abbaabbaabbaabba##",
"##aabbaabbaabbaabb##",
"##babbbabbbabbbabb##",
"##baabbaabbaabbaab##",
"##bbabbbabbbabbbab##",
"##bbaabbaabbaabbaa##",
"##bbaabbaabbaabbaa##",
"##bbabbbabbbabbbab##",
"##baabbaabbaabbaab##",
"##babbbabbbabbbabb##",
"##aabbaabbaabbaabb##",
"##abbaabbaabbaabba##",
"####################",
"####################",
"....................",
"...................."};
