/* XPM */
static char *deletelaser[]={
"20 20 3 1",
". c #000000",
"# c #ff0000",
"a c #ffffff",
"....................",
".##..............##.",
".###.......a....###.",
"..###.....aaa..###..",
"...###.a...a..###a..",
"....###aa....###a...",
".....###....###.....",
"....a.###..###......",
"...aaa.######...a...",
"....a...####...aaa..",
".......a####....a...",
"......a######.......",
"...a..###..###......",
"..aaa###...a###..a..",
"...a###.....a###aaa.",
"...###..a.....###a..",
"..###..aaa...a.###..",
".###....a...aaa.###.",
".##..........a...##.",
"...................."};
