/* XPM */
static char *filesave[]={
"20 20 28 1",
"z c None",
"v c #040404",
"w c #363604",
". c #040404",
"y c #131313",
"s c #171717",
"x c #181904",
"u c #1f1f1f",
"o c #272804",
"# c #2c2d04",
"m c #363804",
"a c #414204",
"e c #414241",
"f c #4b4c04",
"l c #4f5204",
"b c #505150",
"p c #5a5c04",
"k c #5f615f",
"d c #606060",
"t c #636463",
"g c #6e7104",
"c c #6f706f",
"q c #737604",
"r c #7d8004",
"n c #808304",
"h c #898b89",
"j c #8d8f8d",
"i c #bfc2bf",
"....................",
".#a.bccccccccccb.de.",
".fg.hiiiiiiiiiih.jk.",
".fg.hiiiiiiiiiih....",
".fg.hiiiiiiiiiih.lm.",
".fg.hiiiiiiiiiih.gf.",
".fg.hiiiiiiiiiih.gf.",
".fg.hiiiiiiiiiih.gf.",
".fg.hiiiiiiiiiih.gf.",
".fg.hiiiiiiiiiih.gf.",
".fnno..........onnf.",
".fnnpffffffffffpnnf.",
".fnnqggggggggggggrf.",
".fnno............gf.",
".fnno.......shht.gf.",
".fnno.......uiih.gf.",
".fnno.......uiih.gf.",
".fnno.......uiih.gf.",
"vwffx.......yccb.a#.",
"zv.................."};
