/* XPM */
static char *flatroof[]={
"20 20 3 1",
". c None",
"# c #000000",
"a c #ffffff",
"....................",
"....................",
"####################",
"####################",
"##aaaaaaaaaaaaaaaa##",
"##aaaaaaaaaaaaaaaa##",
"##aaaaaaaaaaaaaaaa##",
"##aaaaaaaaaaaaaaaa##",
"##aaaaaaaaaaaaaaaa##",
"##aaaaaaaaaaaaaaaa##",
"##aaaaaaaaaaaaaaaa##",
"##aaaaaaaaaaaaaaaa##",
"##aaaaaaaaaaaaaaaa##",
"##aaaaaaaaaaaaaaaa##",
"##aaaaaaaaaaaaaaaa##",
"##aaaaaaaaaaaaaaaa##",
"####################",
"####################",
"....................",
"...................."};
