/* XPM */
static char *hiproof[]={
"20 20 4 1",
". c None",
"# c #000000",
"b c #ff0000",
"a c #ffffff",
"....................",
"....................",
"####################",
"####################",
"####abbaabbaabba####",
"#####bbaabbaabb#####",
"##b###baabbaab###b##",
"##aa###aabbaa###aa##",
"##aaa###abba###aaa##",
"##bbbb########bbbb##",
"##bbbb########bbbb##",
"##aaa###abba###aaa##",
"##aa###aabbaa###aa##",
"##b###baabbaab###b##",
"#####bbaabbaabb#####",
"####abbaabbaabba####",
"####################",
"####################",
"....................",
"...................."};
