/* XPM */
static char *mergemap[]={
"20 20 3 1",
". c #000000",
"a c #00ff00",
"# c #ffffff",
"....................",
"....................",
"..################..",
"..################..",
"..##.....##.....##..",
"..##.....##.....##..",
"..##.....##.....##..",
"..##...aa.#.....##..",
"..##..aaaa....a.##..",
"..##.aaaaaa..aa.##..",
"..##.aa..aaaaaa.##..",
"..##.a....aaaa..##..",
"..##.....#.aa...##..",
"..##.....##.....##..",
"..##.....##.....##..",
"..##.....##.....##..",
"..################..",
"..################..",
"....................",
"...................."};
