/* XPM */
static char *acceptmodel[]={
"20 20 2 1",
". c #000000",
"# c #00ff00",
"....................",
"......########......",
".....##########.....",
"....##.......##.....",
"....##.......##.....",
"....###......##.....",
".....###....###.....",
"......#####.##......",
".......#######......",
"..........######....",
".........###.####...",
".......####...####..",
"......###.......##..",
"....####........##..",
"...###.........###..",
"...##.........###...",
".............###....",
"............###.....",
"...........##.......",
"...................."};
