/* XPM */
static char *reconstructcorner[]={
"20 20 4 1",
". c #000000",
"b c #ff0000",
"d c #00ff00",
"a c #ffff80",
".........bb.........",
"........bbbb........",
".......bbbbbb.......",
"......bbbbbbbb......",
".....bbbbbbbbbb.....",
"....bbbbbbbbbbb.d...",
"...bbbbbbbbbbb.ddd..",
"..d.bbbbbbbbb.ddd...",
".ddd.bbbbbbb.ddd.a..",
"..ddd.bbbbb.ddd.aa..",
".a.ddd.bbb.ddd.aaa..",
".aa.ddd.b.ddd.aaaa..",
".aaa.ddd.ddd.aaaa...",
".aaaa.ddddd.aaaa....",
"..aaaa.ddd.aaaa.....",
"...aaa.ddd.aaa......",
"....aa.ddd.aa.......",
".....a.ddd.a........",
".......ddd..........",
"...................."};
