/* XPM */
static char *selectmodel[]={
"20 20 4 1",
". c #000000",
"# c #ff0000",
"b c #ffff80",
"a c #ffffff",
"....................",
"....................",
".....#........#.....",
"....##.......###....",
"....##.a.....###....",
"...###.aa...#####...",
"...###.aaa..#####...",
"..####.aaaa.######..",
"..####.aaaaa.#####..",
".#####.aaaaaa.#####.",
".bbbbb.aaaa...bbbbb.",
".bbbbb.aa.a.bbbbbbb.",
".bbbbb.a..aa.bbbbbb.",
".bbbbb..bb.a.bbbbbb.",
".bbbbb.bbb.aa.bbbbb.",
".bbbbbbbbbb.a.bbbbb.",
".bbbbbbbbbb..bbbbbb.",
".bbbbbbbbbbbbbbbbbb.",
".bbbbbbbbbbbbbbbbbb.",
"...................."};
