/* XPM */
static char *selectlaser[]={
"20 20 3 1",
". c #000000",
"a c #303030",
"# c #ffffff",
"....................",
"....................",
"...#..a....#........",
"..###.aa..###...#...",
"...#..a#a..#...###..",
"......a##a......#...",
"......a###a.........",
"....#.a####a........",
"...###a#####a...#...",
"....#.a######a.###..",
"......a####aaaa.#...",
"......a##a#a........",
"......a#aa##a.......",
"......aa..a#a.......",
"...#..a...a##a..#...",
"..###...#..a#a.###..",
"...#...###.aa...#...",
"........#...........",
"....................",
"...................."};
