/* XPM */
static char *showshaded[]={
"20 20 21 1",
"s c #000000",
"r c #030303",
"q c #060606",
"p c #0a0a0a",
"o c #0f0f0f",
"n c #181818",
"m c #2a2a2a",
"j c #2d2d2d",
"l c #2f2f2f",
"k c #343434",
". c #7f7f7f",
"i c #cacaca",
"g c #cfcfcf",
"h c #d1d1d1",
"f c #d4d4d4",
"# c #e6e6e6",
"a c #efefef",
"b c #f4f4f4",
"c c #f8f8f8",
"d c #fbfbfb",
"e c #ffffff",
"....................",
"...#abcdeedcba#.....",
"...#fghih.jkjlmn....",
"...#fghih.jkjlmn....",
"...#fghih.jkjlmn....",
"...#fghih.jkjlmn....",
"...#fghih.jkjlmn....",
"...#fghih.jkjlmn....",
"...#fghih.jkjlmn....",
"...#fghih.jkjlmn....",
"...#fghih.jkjlmn....",
"...#fghih.jkjlmn....",
"...#fghih.jkjlmn....",
"...#fghih.jkjlmn....",
"...#fghih.jkjlmn....",
"...#fghih.jkjlmn....",
"...#fghih.jkjlmn....",
"....nopqrssrqpon....",
"....................",
"...................."};
