/* XPM */
static char *showselectedlaser[]={
"20 20 3 1",
". c #000000",
"a c #ff0000",
"# c #ffffff",
"....................",
"....................",
"...a.......#........",
"..aaa.....###...a...",
"...a...#...#...aaa..",
"......###.......a...",
".......#............",
"....a......#........",
"...aaa....###...a...",
"....a......#...aaa..",
".......#........a...",
"......###...........",
".......#....#.......",
"...........###......",
"...a........#...a...",
"..aaa...a......aaa..",
"...a...aaa......a...",
"........a...........",
"....................",
"...................."};
