/* XPM */
static char *showheight[]={
"20 20 7 1",
". c #000000",
"# c #585858",
"a c #808080",
"b c #a0a0a0",
"c c #c3c3c3",
"d c #dcdcdc",
"e c #ffffff",
"....................",
"....................",
"....#abcdeedcba#....",
"....#abcdeedcba#....",
"....#abcdeedcba#....",
"....#abcdeedcba#....",
"....#abcdeedcba#....",
"....#abcdeedcba#....",
"....#abcdeedcba#....",
"....#abcdeedcba#....",
"....#abcdeedcba#....",
"....#abcdeedcba#....",
"....#abcdeedcba#....",
"....#abcdeedcba#....",
"....#abcdeedcba#....",
"....#abcdeedcba#....",
"....#abcdeedcba#....",
"....#abcdeedcba#....",
"....................",
"...................."};
