/* XPM */
static char *sphereroof[]={
"20 20 4 1",
". c None",
"# c #000000",
"b c #ff0000",
"a c #ffffff",
".......######.......",
".....##########.....",
"...#####aaaa#####...",
"..####aaaaaaaa####..",
"..##aaabbbbbbaaa##..",
".###aabbbbbbbbaa###.",
".##aabbbaaaabbbaa##.",
"###abbbaabbaabbba###",
"##aabbaabbbbaabbaa##",
"##aabbabbaabbabbaa##",
"##aabbabbaabbabbaa##",
"##aabbaabbbbaabbaa##",
"###abbbaabbaabbba###",
".##aabbbaaaabbbaa##.",
".###aabbbbbbbbaa###.",
"..##aaabbbbbbaaa##..",
"..####aaaaaaaa####..",
"...#####aaaa#####...",
".....##########.....",
".......######......."};
