/* XPM */
static char *splitmap[]={
"20 20 3 1",
". c #000000",
"a c #00ff00",
"# c #ffb83d",
"....................",
"....................",
"..#####aa####.......",
"..#####aa####.......",
"..##...aa..##.......",
"..##...aa..##.......",
"..##...aa..##.......",
"..##...aa..##.......",
"..##...aa..#######..",
"..##...aa..#######..",
"..##...aa.......##..",
"..##...aa.......##..",
"..##...aa.......##..",
"..##...aa.......##..",
"..##...aa.......##..",
"..##...aa.......##..",
"..#####aa#########..",
"..#####aa#########..",
"....................",
"...................."};
