/* XPM */
static char *viewsave[]={
"20 20 29 1",
"A c None",
"m c #000080",
". c #040404",
"z c #131313",
"u c #171717",
"y c #181904",
"w c #1f1f1f",
"q c #272804",
"# c #2c2d04",
"x c #363604",
"o c #363804",
"a c #414204",
"e c #414241",
"f c #4b4c04",
"n c #4f5204",
"b c #505150",
"r c #5a5c04",
"k c #5f615f",
"d c #606060",
"v c #636463",
"g c #6e7104",
"c c #6f706f",
"s c #737604",
"t c #7d8004",
"p c #808304",
"h c #898b89",
"j c #8d8f8d",
"i c #bfc2bf",
"l c #ffffff",
"....................",
".#a.bccccccccccb.de.",
".fg.hiiiiiiiiiih.jk.",
".fg.hiiillliiiih....",
".fg.hillmmmlliih.no.",
".fg.lllmmmmmlllh.gf.",
".fg.lllmmmmmlllh.gf.",
".fg.lllmmmmmlllh.gf.",
".fg.hillmmmlliih.gf.",
".fg.hiiillliiiih.gf.",
".fppq..........qppf.",
".fpprffffffffffrppf.",
".fppsggggggggggggtf.",
".fppq............gf.",
".fppq.......uhhv.gf.",
".fppq.......wiih.gf.",
".fppq.......wiih.gf.",
".fppq.......wiih.gf.",
".xffy.......zccb.a#.",
"A..................."};
