/* XPM */
static char *viewlevel[]={
"20 20 3 1",
". c #000000",
"a c #000080",
"# c #ffffff",
"....................",
"....................",
"....................",
"....................",
"........###.........",
"......##aaa##.......",
"....###aaaaa###.....",
"....###aaaaa###.....",
"....###aaaaa###.....",
"......##aaa##.......",
"........###.........",
"....................",
"....................",
"....................",
"....................",
"####################",
"####################",
"....................",
"....................",
"...................."};
