/* XPM */
static char *closeline[]={
"20 20 3 1",
". c #000000",
"a c #00ff00",
"# c #ffffff",
"....................",
"....................",
"..#aaaaaaaaaaaaaa#..",
"..#aaaaaaaaaaaaaa#..",
"..##............##..",
"..##............##..",
"..##...........##...",
"..##...........##...",
"..##...........##...",
"..##...........##...",
"..##..........##....",
"..##..........##....",
"..##..........##....",
"..##..........##....",
"..##.........##.....",
"..##.........##.....",
"..#############.....",
"..#############.....",
"....................",
"...................."};
