/* XPM */
static char *coneroof[]={
"20 20 4 1",
". c None",
"# c #000000",
"b c #ff0000",
"a c #ffffff",
".......######.......",
".....##########.....",
"...#####bbbb#####...",
"..####bbbbbbbb####..",
"..##aaabbbbbbaaa##..",
".###aaabbbbbbaaa###.",
".##aaaaabbbbaaaaa##.",
"###baaaabbbbaaaab###",
"##bbbbaaabbaaabbbb##",
"##bbbbbbb b bbbbbb##",
"##bbbbbb b bbbbbbb##",
"##bbbb   bb   bbbb##",
"###b    bbbb    b###",
".##aa   bbbb    a##.",
".###aa bbbbbb  a###.",
"..##aa bbbbbbaaa##..",
"..####bbbbbbbb####..",
"...#####bbbb#####...",
".....##########.....",
".......######......."};
