/* XPM */
static char *cylinderroofrot_xpm[] = {
/* width height num_colors chars_per_pixel */
"    20    20        4            1",
/* colors */
"` c None",
". c #000000",
"# c #ff0000",
"a c #ffffff",
/* pixels */
"``................``",
"``................``",
"``..a####aa####a..``",
"``..###aaaaaa###..``",
"``..#aaa####aaa#..``",
"``..aa########aa..``",
"``..a####aa####a..``",
"``..###aaaaaa###..``",
"``..#aaa####aaa#..``",
"``..aa########aa..``",
"``..a####aa####a..``",
"``..###aaaaaa###..``",
"``..#aaa####aaa#..``",
"``..aa########aa..``",
"``..a####aa####a..``",
"``..###aaaaaa###..``",
"``..#aaa####aaa#..``",
"``..aa########aa..``",
"``................``",
"``................``"
};
