/* XPM */
static char *delete[]={
"32 32 14 1",
"b c #000000",
"c c #0a0000",
"e c #1f0000",
"l c #290000",
"d c #330000",
"k c #660000",
"g c #990000",
"a c #999999",
"i c #cc0000",
"h c #d60000",
"# c #d6d6d6",
"j c #e00000",
"f c #ff0000",
". c #ffffff",
"................................",
".#aaaaaaaaaaaaaaaaaaaaaaaaaaaa#.",
".abbbbbbbbbbbbbbbbbbbbbbbbbbbba.",
".abbbbbbbbbbbbbbbbbbbbbbbbbbbba.",
".abbcddddebbbbbbbbbbbbeddddcbba.",
".abbdffffgbbbbbbbbbbbbgffffdbba.",
".abbdffffhgebbbbbbbbeghffffdbba.",
".abbdffffffdbbbbbbbbdffffffdbba.",
".abbdfffffffibbbbbbifffffffdbba.",
".abbeghfffffjklbblkjfffffhgebba.",
".abbbbgfffffffkbbkfffffffgbbbba.",
".abbbbedffffffjiijffffffdebbbba.",
".abbbbbbijffffffffffffjibbbbbba.",
".abbbbbbbkffffffffffffkbbbbbbba.",
".abbbbbbblkjffffffffjklbbbbbbba.",
".abbbbbbbbbiffffffffibbbbbbbbba.",
".abbbbbbbbbiffffffffibbbbbbbbba.",
".abbbbbbblkjffffffffjklbbbbbbba.",
".abbbbbbbkffffffffffffkbbbbbbba.",
".abbbbbbijffffffffffffjibbbbbba.",
".abbbbedffffffjiijffffffdebbbba.",
".abbbbgfffffffkbbkfffffffgbbbba.",
".abbeghfffffjklbblkjfffffhgebba.",
".abbdfffffffibbbbbbifffffffdbba.",
".abbdffffffdbbbbbbbbdffffffdbba.",
".abbdffffhgebbbbbbbbeghffffdbba.",
".abbdffffgbbbbbbbbbbbbgffffdbba.",
".abbcddddebbbbbbbbbbbbeddddcbba.",
".abbbbbbbbbbbbbbbbbbbbbbbbbbbba.",
".abbbbbbbbbbbbbbbbbbbbbbbbbbbba.",
".#aaaaaaaaaaaaaaaaaaaaaaaaaaaa#.",
"................................"};
