/* XPM */
static char *deleteline[]={
"20 20 3 1",
". c #000000",
"# c #ff0000",
"a c #ffffff",
"....................",
".##.....aa.......##.",
".###...aaaaa....###.",
"..###..aa.aaaa.###..",
"...###aa....aa###...",
"....###a.....###aa..",
".....###....###.aa..",
".....a###..###.aa...",
"....aa.######..aa...",
"....aa..####..aa....",
"...aa...####..aa....",
"...aa..######aa.....",
"..aa..###..###a.....",
"..aa.###....###.....",
"...a###.....a###....",
"...###a....aa.###...",
"..###aaaa..aa..###..",
".###...aaaaa....###.",
".##......aa......##.",
"...................."};
