/* XPM */
static char *editmodel[]={
"20 20 4 1",
". c #000000",
"# c #ff0000",
"a c #ffff80",
"b c #00ff00",
"..........b....b....",
".........bbb..bbb...",
".........bbb.bbb....",
".......#.bbbbbb.....",
"......##.bbbbb......",
".....###.bbbb.#.....",
"....####.bbb.###....",
"...####.bbbb.####...",
"..####.bbbbb.#####..",
".####.bbbbbb.######.",
".....bbb.bbb.aaaaaa.",
".bbbbbb..bbb.aaaaaa.",
"bbbbbbb..bbb.aaaaaa.",
"bb..bbb..bbb..aaaaa.",
"bb..bbb.bbbbbb.aaaa.",
"bbbbbb.bbb..bbb.aaa.",
".bbbb..bbb..bbb.aaa.",
".....aa.bbbbbb.aaaa.",
".aaaaaaa.bbbb.aaaaa.",
"...................."};
