/* XPM */
static char *extendline[]={
"20 20 3 1",
". c #000000",
"a c #00ff00",
"# c #ffffff",
"....................",
"....................",
"..##aa..............",
"..##aaaa............",
"..##..aaaa..........",
"...##...aaaa........",
"...##.....aaaa......",
"...##.......aaaa....",
"....##........aa....",
"....##..............",
"....##..............",
".....##.............",
".....##.............",
".....##.............",
"......##............",
"......##............",
"......############..",
"........##########..",
"....................",
"...................."};
