/* XPM */
static char *gableroofrot[]={
"20 20 4 1",
". c None",
"# c #000000",
"b c #ff0000",
"a c #ffffff",
"..################..",
"..################..",
"..##aaaaa##aaaaa##..",
"..##bbbbb##bbbbb##..",
"..##bbbbb##bbbbb##..",
"..##aaaaa##aaaaa##..",
"..##aaaaa##aaaaa##..",
"..##bbbbb##bbbbb##..",
"..##bbbbb##bbbbb##..",
"..##aaaaa##aaaaa##..",
"..##aaaaa##aaaaa##..",
"..##bbbbb##bbbbb##..",
"..##bbbbb##bbbbb##..",
"..##aaaaa##aaaaa##..",
"..##aaaaa##aaaaa##..",
"..##bbbbb##bbbbb##..",
"..##bbbbb##bbbbb##..",
"..##aaaaa##aaaaa##..",
"..################..",
"..################.."};
