/* XPM */
static char *hiproof2[]={
"20 20 5 1",
". c None",
"# c #000000",
"c c #008000",
"b c #ff0000",
"a c #ffffff",
"....................",
"....................",
"####################",
"####################",
"####abbaabbaabba####",
"#####bbaabbaabb#####",
"##c###baabbaab###c##",
"##aa###aabbaa###aa##",
"##aaa###abba###aaa##",
"##cccc########cccc##",
"##cccc########cccc##",
"##aaa###abba###aaa##",
"##aa###aabbaa###aa##",
"##c###baabbaab###c##",
"#####bbaabbaabb#####",
"####abbaabbaabba####",
"####################",
"####################",
"....................",
"...................."};
