/* XPM */
static char *segmentlaser[]={
"20 20 4 1",
". c #000000",
"a c #00ff00",
"# c #ff0000",
"b c #ffff00",
"....................",
"...#................",
"..###......#........",
"...#...#..###...#...",
".aa...###..#...###..",
".aaaa..#........#...",
"...aaaa.....#.......",
".....aaa...###......",
"..b....aaa..#...#...",
".bbb....aaaa...###..",
"..b....b..aaaa..#...",
"......bbb...aaa.....",
".......b......aaa...",
"............b..aaaa.",
"...b.......bbb...aa.",
"..bbb...b...b.......",
"...b...bbb.....b....",
"........b.....bbb...",
"...............b....",
"...................."};
