/* XPM */
static char *mainwindow[]={
"20 20 4 1",
". c #000000",
"a c #00c000",
"b c #00ff00",
"# c #ffffff",
"....................",
".##################.",
".##################.",
".##################.",
".##################.",
".##################.",
".##########aaa#####.",
".###########aba####.",
".############aba###.",
".#############aba##.",
".##aaaaaaaaaaaaaba#.",
".##abbbbbbbbbbbbbba.",
".##aaaaaaaaaaaaaba#.",
".#############aba##.",
".############aba###.",
".###########aba####.",
".##########aaa#####.",
".##################.",
".##################.",
"...................."};
