/* XPM */
static char *movenode[]={
"20 20 3 1",
". c #000000",
"# c #00ff00",
"a c #ffffff",
"....................",
"....................",
"..################..",
"..################..",
"..##............##..",
"..##............##..",
"..##...........##...",
"..##...........##...",
"..##...........##...",
"..##...........##...",
"..aaaaaaaaaaaaaa....",
"..aaaaaaaaaaaaaa....",
"..aa..........aa....",
"..aa..........aa....",
"..aa.........aa.....",
"..aa.........aa.....",
"..aaaaaaaaaaaaa.....",
"..aaaaaaaaaaaaa.....",
"....................",
"...................."};
