/* XPM */
static char *newstartnode[]={
"20 20 3 1",
". c #000000",
"a c #00ff00",
"# c #ffffff",
"....................",
".####...............",
".#################..",
".#################..",
".####...........##..",
"..##............##..",
"..##...........##...",
"..##...........##...",
"..##...........##...",
"..##...........##...",
"..##..........##....",
"..##..........##....",
"..##..........##....",
"..##..........##....",
"..##.........##.....",
"..##........aaaa....",
"..##########aaaa....",
"..##########aaaa....",
"............aaaa....",
"...................."};
