/* XPM */
static char *viewlevel[]={
"20 20 4 1",
". c #000000",
"a c #001000",
"b c #00ff00",
"# c #ffffff",
"....................",
".##################.",
".##################.",
".##################.",
".##################.",
".##################.",
".#######aaa########.",
".#####aabbbaa######.",
".###aabbbbbbbaa####.",
".##abbbbaaabbbba###.",
".##abbbbaaabbbba###.",
".##abbbbaaabbbba###.",
".###aabbbbbbbaa####.",
".#####aabbbaa######.",
".#######aaa########.",
".##################.",
".##################.",
".##################.",
".##################.",
"...................."};
