/* XPM */
static char *partition[]={
"20 20 3 1",
". c #000000",
"a c #ff0000",
"# c #ffb83d",
"....................",
"....................",
"..###########.......",
"..###########.......",
"..##.......##.......",
"..##.......##.......",
"..##.......##.......",
"..##.......##.......",
"..#aaaaaaaaa######..",
"..#aaaaaaaaaa#####..",
"..##.......aa...##..",
"..##.......aa...##..",
"..##.......aa...##..",
"..##.......aa...##..",
"..##.......aa...##..",
"..##.......aa...##..",
"..#########aa#####..",
"..################..",
"....................",
"...................."};
