/* XPM */ 
static const unsigned char * recbldwithfoot_xpm[] = {
"16 16 5 1",
" 	c None",
"!	c black",
"#	c #FF0000",
"$	c #00FF00",
"%	c #FFFF00",
"!!!!!!!!!!!!!!!!",
"!!!!!!!!!!!!!!!!",
"!!!!!!##$$!!!!!!",
"!!!!####$$$!!!!!",
"!!####!!!!$$!!!!",
"####!!!!!!!!$$!!",
"!!!!!!!!!!!!!$$!",
"!!!!!!!!!!!!!!!!",
"!!!!!!!!!!!!!!!!",
"!!!%%%%%%%%%%%%!",
"!!%!!!!!!!!!!%!!",
"!%!!!!!!!!!!%!!!",
"%%%%%%%%%%%%!!!!",
"!!!!!!!!!!!!!!!!",
"!!!!!!!!!!!!!!!!",
"!!!!!!!!!!!!!!!!"};