/* XPM */
static char *reconstructcorner[]={
"20 20 4 1",
". c #000000",
"b c #ff0000",
"d c #00ff00",
"a c #ffff80",
".........bb.........",
"........bbbb........",
".......bbbbbb.......",
"......bbbbbbbb......",
".....bbbbbbbbbb.....",
"....bbbbbbbbbbbb....",
"...bbbbbbbbbbbb.d...",
"...bbbbbbbbbbb.dd...",
"..d.bbbbbbbbb.ddd...",
"..dd.bbbbbbb.dddd...",
"..ddd.bbbbb.ddddd...",
"..dddd.bbb.dddddd...",
"..ddddd.b.ddddddd...",
"..dddddd.ddddddd....",
"..dddddd.dddddd.....",
"...ddddd.ddddd......",
"....dddd.dddd.......",
".....ddd.ddd........",
"......dd.dd.........",
".......d.d.........."};
