/* XPM */
static char *reverseline[]={
"20 20 2 1",
". c #000000",
"# c #ffffff",
"....................",
"....................",
"....................",
"....................",
"....................",
"......#......#......",
".....##......##.....",
"....###......###....",
"...####......####...",
"..################..",
"..################..",
"...####......####...",
"....###......###....",
".....##......##.....",
"......#......#......",
"....................",
"....................",
"....................",
"....................",
"...................."};
