/* XPM */
static char *selectsegment[]={
"20 20 5 1",
". c #000000",
"c c #00ff00",
"a c #303030",
"# c #ff0000",
"b c #ffffff",
"....................",
"...##...............",
"...##.a........##...",
".######a.......##...",
".######ba....######.",
"...##.abba...######.",
"...##.abbba....##...",
"......abbbba...##...",
"..##..abbbbba.......",
"..##..abbbbbba..c...",
"######abbbbaaaaccc..",
"######abbaba....c...",
"..##..abaabba.......",
"..##..aa..aba.......",
"......a...abba..c...",
"...c....c..aba.ccc..",
"..ccc..ccc.aa...c...",
"...c....c...........",
"....................",
"...................."};
