/* XPM */
static char *selectsegment[]={
"20 20 5 1",
". c #000000",
"c c #00ff00",
"a c #303030",
"# c #ff0000",
"b c #ffffff",
"....................",
"...##...............",
"...##.a....c........",
".######a..ccc...c...",
".######ba..c...ccc..",
"...##.abba......c...",
"...##.abbba.........",
"......abbbba........",
"......abbbbba...c...",
"....c.abbbbbba.ccc..",
"...cccabbbbaaaa.c...",
"....c.abbaba........",
"......abaabba.......",
"......aa..aba.......",
"...c..a...abba..c...",
"..ccc...c..aba.ccc..",
"...c...ccc.aa...c...",
"........c...........",
"....................",
"...................."};
