/* XPM */
static char *selectmodelface[]={
"20 20 4 1",
". c #000000",
"# c #ffd0d0",
"b c #ff0000",
"a c #ffffff",
"....................",
".........#b.........",
"........##bb........",
".......###bbb.......",
"......####bbbb......",
".....#####bbbbb.....",
"....#..###bbbbbb....",
"...##.a.##bbbbbbb...",
"..###.aa.#bbbbbbbb..",
"..###.aaa.bbbbbbbb..",
"..###.aaaa.bbbbbbb..",
"..###.aaaaa.bbbbbb..",
"..###.aaaaaa.bbbbb..",
"..###.aaaa...bbbbb..",
"..###.aa.a....bbbb..",
"..###.a..aa....bbb..",
"..##......a.....bb..",
"..#.......aa.....b..",
"...........a........",
"...................."};
