/* XPM */
static char *selectmappart[]={
"20 20 3 1",
". c #000000",
"# c #ff0000",
"a c #ffffff",
"....................",
"....................",
"..###########.......",
"..###...#####.......",
"..##..a....##.......",
"..##..aa...##.......",
"..##..aaa..##.......",
"..##..aaaa..#.......",
"..###.aaaaa..#####..",
"..###.aaaaaa.#####..",
"..##..aaaa......##..",
"..##..aa.a.##...##..",
"..##..a..aa.#...##..",
"..##......a.#...##..",
"..##......aa....##..",
"..##.......a....##..",
"..########...#####..",
"..################..",
"....................",
"...................."};
