/* XPM */
static char *showmapparts[]={
"20 20 2 1",
". c #000000",
"# c #ff0000",
"....................",
"....................",
"..###########.......",
"..###########.......",
"..##.......##.......",
"..##.......##.......",
"..##.......##.......",
"..##.......##.......",
"..################..",
"..################..",
"..##.......##...##..",
"..##.......##...##..",
"..##.......##...##..",
"..##.......##...##..",
"..##.......##...##..",
"..##.......##...##..",
"..################..",
"..################..",
"....................",
"...................."};
