/* XPM */
static char *showmodels[]={
"20 20 3 1",
". c #000000",
"# c #ff0000",
"a c #ffff80",
"....................",
"....................",
".....#........#.....",
"....###......###....",
"....###......###....",
"...#####....#####...",
"...#####....#####...",
"..#######..#######..",
"..#######..#######..",
".##################.",
".aaaaaaaaaaaaaaaaaa.",
".aaaaaaaaaaaaaaaaaa.",
".aaaaaaaaaaaaaaaaaa.",
".aaaaaaaaaaaaaaaaaa.",
".aaaaaaaaaaaaaaaaaa.",
".aaaaaaaaaaaaaaaaaa.",
".aaaaaaaaaaaaaaaaaa.",
".aaaaaaaaaaaaaaaaaa.",
".aaaaaaaaaaaaaaaaaa.",
"...................."};
