/* XPM */
static char *splitline[]={
"20 20 5 1",
". c #000000",
"c c #00ff00",
"a c #ff0000",
"b c #ffff00",
"# c #ffffff",
"....................",
".####...............",
".####aaaaaaaaaaaaa..",
".####aaaaaaaaaaaaa..",
".####...........aa..",
"..bb............aa..",
"..bb...........aa...",
"..bb...........aa...",
"..bb...........aa...",
"..bb...........aa...",
"..bb..........aa....",
"..bb..........aa....",
"..bb..........aa....",
"..bb..........aa....",
"..bb.........aa.....",
"..bb........cccc....",
"..bbbbbbbbbbcccc....",
"..bbbbbbbbbbcccc....",
"............cccc....",
"...................."};
