/* XPM */
static char *viewfitselected[]={
"20 20 5 1",
"# c None",
". c #000000",
"c c #000080",
"a c #ff0000",
"b c #ffffff",
"...................#",
".aaaaaaaaaaaaaaaaa.#",
".aaaaaaaaaaaaaaaaa.#",
".aa.............aa.#",
".aa.............aa.#",
".aa.............aa.#",
".aa.....bbb.....aa.#",
".aa...bbcccbb...aa.#",
".aa.bbbcccccbbb.aa.#",
".aa.bbbcccccbbb.aa.#",
".aa.bbbcccccbbb.aa.#",
".aa...bbcccbb...aa.#",
".aa.....bbb.....aa.#",
".aa.............aa.#",
".aa.............aa.#",
".aa.............aa.#",
".aa.............aa.#",
".aaaaaaaaaaaaaaaaa.#",
".aaaaaaaaaaaaaaaaa.#",
"...................#"};
