/* XPM */
static char *viewfitlastmodel[]={
"20 20 5 1",
". c #000000",
"b c #000080",
"# c #ff0000",
"c c #ffff80",
"a c #ffffff",
"....................",
"....................",
"......##....aaa.....",
".....####.aabbbaa...",
".....###aaabbbbbaaa.",
"....####aaabbbbbaaa.",
"....####aaabbbbbaaa.",
"...#######aabbbaa...",
"...########.aaa.....",
"..##########........",
"..cccccccccc........",
"..cccccccccc........",
"..cccccccccc........",
"..cccccccccc........",
"..cccccccccc........",
"..cccccccccc........",
"..cccccccccc........",
"..cccccccccc........",
"..cccccccccc........",
"...................."};
