/* XPM */
static char *viewhorizontal_xpm[] = {
/* width height num_colors chars_per_pixel */
"    20    20        4            1",
/* colors */
"` c #000000",
". c #000080",
"# c #ffffff",
"a c #09917c",
/* pixels */
"```````````````##```",
"```````````````##```",
"```````````````##```",
"```````````````##```",
"```````````````##```",
"``````###``````##```",
"``````###``````##```",
"`````#####`````##```",
"`````#...#`````##```",
"````#.....#````##```",
"````#.....#````##```",
"````#.....#````##```",
"`````#...#`````##```",
"`````#####`````##```",
"``````###``````##```",
"``````###``````##```",
"```````````````##```",
"```````````````##```",
"```````````````##```",
"```````````````##```"
};
