/* XPM */
static char *viewfitselectedlaser[]={
"20 20 4 1",
". c #000000",
"b c #000080",
"# c #ff0000",
"a c #ffffff",
"....................",
"..#....#............",
".###..###.....#.....",
"..#....#.....###....",
"..............#.....",
"..#.................",
".###....aaa......#..",
"..#...aabbbaa...###.",
"....aaabbbbbaaa..#..",
"....aaabbbbbaaa.....",
"....aaabbbbbaaa.....",
"......aabbbaa...#...",
".#......aaa....###..",
"###.............#...",
".#......#...........",
".......###...#......",
"...#....#...###...#.",
"..###........#...###",
"...#..............#.",
"...................."};
